<svg xmlns="http://www.w3.org/2000/svg" xmlns:xlink="http://www.w3.org/1999/xlink" width="356" height="244" viewBox="0 0 356 244">
  <defs>
    <filter id="Rectangle_198" x="0" y="0" width="356" height="244" filterUnits="userSpaceOnUse">
      <feOffset dy="2" input="SourceAlpha"/>
      <feGaussianBlur stdDeviation="2" result="blur"/>
      <feFlood flood-opacity="0.404"/>
      <feComposite operator="in" in2="blur"/>
      <feComposite in="SourceGraphic"/>
    </filter>
    <linearGradient id="linear-gradient" x1="0.5" x2="0.5" y2="1" gradientUnits="objectBoundingBox">
      <stop offset="0" stop-color="#31edb7"/>
      <stop offset="1" stop-color="#2aaf89"/>
    </linearGradient>
    <filter id="Rectangle_200" x="36.5" y="152.5" width="284" height="69" filterUnits="userSpaceOnUse">
      <feOffset dy="4" input="SourceAlpha"/>
      <feGaussianBlur stdDeviation="1.5" result="blur-2"/>
      <feFlood flood-color="#096f4a"/>
      <feComposite operator="in" in2="blur-2"/>
    </filter>
    <filter id="Rectangle_200-2" x="36.5" y="152.5" width="284" height="69" filterUnits="userSpaceOnUse">
      <feOffset dy="3" input="SourceAlpha"/>
      <feGaussianBlur stdDeviation="3" result="blur-3"/>
      <feFlood flood-color="#1dffa8" result="color"/>
      <feComposite operator="out" in="SourceGraphic" in2="blur-3"/>
      <feComposite operator="in" in="color"/>
      <feComposite operator="in" in2="SourceGraphic"/>
    </filter>
  </defs>
  <g id="Group_178" data-name="Group 178" transform="translate(-101 -169)">
    <g transform="matrix(1, 0, 0, 1, 101, 169)" filter="url(#Rectangle_198)">
      <rect id="Rectangle_198-2" data-name="Rectangle 198" width="344" height="232" rx="9" transform="translate(6 4)" fill="#fff"/>
    </g>
    <g data-type="innerShadowGroup">
      <g transform="matrix(1, 0, 0, 1, 101, 169)" filter="url(#Rectangle_200)">
        <g id="Rectangle_200-3" data-name="Rectangle 200" transform="translate(41 153)" stroke="#079068" stroke-width="1" fill="url(#linear-gradient)">
          <rect width="275" height="60" rx="30" stroke="none"/>
          <rect x="0.5" y="0.5" width="274" height="59" rx="29.5" fill="none"/>
        </g>
      </g>
      <rect id="Rectangle_200-4" data-name="Rectangle 200" width="275" height="60" rx="30" transform="translate(142 322)" fill="url(#linear-gradient)"/>
      <g transform="matrix(1, 0, 0, 1, 101, 169)" filter="url(#Rectangle_200-2)">
        <rect id="Rectangle_200-5" data-name="Rectangle 200" width="275" height="60" rx="30" transform="translate(41 153)" fill="#fff"/>
      </g>
      <g id="Rectangle_200-6" data-name="Rectangle 200" transform="translate(142 322)" fill="none" stroke="#079068" stroke-width="1">
        <rect width="275" height="60" rx="30" stroke="none"/>
        <rect x="0.5" y="0.5" width="274" height="59" rx="29.5" fill="none"/>
      </g>
    </g>
    <text id="PENGUNJUNG" transform="translate(187 360)" fill="#fff" font-size="26" font-family="AvenirNext-Bold, Avenir Next" font-weight="700"><tspan x="0" y="0">PENGUNJUNG</tspan></text>
    <g id="_10" data-name="10" transform="translate(-125.076 -25.649)">
      <g id="Group_168" data-name="Group 168" transform="translate(403.886 235.87)">
        <path id="Path_654" data-name="Path 654" d="M389.461,308.279H376.309V250.605l13.152,13.152Z" transform="translate(-376.309 -211.143)" fill="#06968d"/>
        <path id="Path_655" data-name="Path 655" d="M376.309,271.526V232.064h13.152v52.615Z" transform="translate(-376.309 -232.064)" fill="#07b3a8"/>
        <path id="Path_656" data-name="Path 656" d="M382.488,284.678V232.064h12.818v65.43Z" transform="translate(-369.336 -232.064)" fill="#089a8b"/>
        <path id="Path_657" data-name="Path 657" d="M395.306,301.306H382.488V256.785L395.306,269.6Z" transform="translate(-369.336 -204.171)" fill="#077d71"/>
        <path id="Path_658" data-name="Path 658" d="M377.576,271.967v-37.9H388.03v48.358Z" transform="translate(-374.878 -229.807)" fill="#fff"/>
        <path id="Path_659" data-name="Path 659" d="M388.03,280.919H377.576V251.873l10.454,10.454Z" transform="translate(-374.878 -209.713)" fill="#d9d9d9"/>
        <path id="Path_660" data-name="Path 660" d="M392.606,275.376H382.488V256.785L392.606,266.9Z" transform="translate(-369.336 -204.171)" fill="#c6c7c7"/>
        <path id="Path_661" data-name="Path 661" d="M382.488,282.422V234.063h10.118v58.476Z" transform="translate(-369.336 -229.807)" fill="#e2e3e4"/>
        <path id="Path_662" data-name="Path 662" d="M385.536,268.565c2.988.119,5.329,2.9,5.329,6.327s-2.341,6.208-5.329,6.332l-.043,0c-.051,0-.1.008-.155.008-3.043,0-5.525-2.846-5.525-6.342s2.482-6.338,5.525-6.338c.055,0,.1,0,.155.006Z" transform="translate(-372.355 -190.892)" fill="#515254"/>
        <path id="Path_663" data-name="Path 663" d="M385.069,279.778c-.055,0-.109.008-.168.008-2.6,0-4.7-2.413-4.7-5.4S382.3,269,384.9,269c.06,0,.113.006.168.009Z" transform="translate(-371.918 -190.391)" fill="#d9d9d9"/>
        <path id="Path_664" data-name="Path 664" d="M387.021,274.387c0,2.914-2.013,5.285-4.533,5.387V269C385.008,269.106,387.021,271.473,387.021,274.387Z" transform="translate(-369.336 -190.386)" fill="#c6c7c7"/>
        <rect id="Rectangle_202" data-name="Rectangle 202" width="12.984" height="5.161" transform="translate(6.576 9.768)" fill="#c4c6cf"/>
      </g>
      <g id="Group_169" data-name="Group 169" transform="translate(430.315 232.946)">
        <path id="Path_665" data-name="Path 665" d="M401.881,291.344H388.727v-28.32l13.154,13.152Z" transform="translate(-388.727 -194.208)" fill="#ce7f12"/>
        <path id="Path_666" data-name="Path 666" d="M388.727,299.505V230.689h13.154v81.968Z" transform="translate(-388.727 -230.689)" fill="#eb9114"/>
        <path id="Path_667" data-name="Path 667" d="M407.723,284.371H394.907V269.2l12.815,12.815Z" transform="translate(-381.753 -187.235)" fill="#b77016"/>
        <path id="Path_668" data-name="Path 668" d="M394.907,312.657V230.689h12.815v94.783Z" transform="translate(-381.753 -230.689)" fill="#d4811a"/>
        <path id="Path_669" data-name="Path 669" d="M389.994,232.689h10.456v66.951H389.994V232.689Z" transform="translate(-387.296 -228.433)" fill="#f5f6f6"/>
        <path id="Path_670" data-name="Path 670" d="M394.907,232.689h10.115v66.951H394.907V232.689Z" transform="translate(-381.753 -228.433)" fill="#e2e3e4"/>
        <path id="Path_671" data-name="Path 671" d="M397.954,279.282l-.04,0c-.051,0-.1.006-.158.006-3.046,0-5.525-2.843-5.525-6.342a6.62,6.62,0,0,1,2.46-5.267l8.036,8.036A5.522,5.522,0,0,1,397.954,279.282Z" transform="translate(-384.773 -188.95)" fill="#515254"/>
        <path id="Path_672" data-name="Path 672" d="M393.387,268.251a4.993,4.993,0,0,1,3.065-1.071c.055,0,.106,0,.158.009l.043,0c2.986.121,5.327,2.9,5.327,6.327a7.143,7.143,0,0,1-.555,2.769Z" transform="translate(-383.468 -189.518)" fill="#6d6e71"/>
        <path id="Path_673" data-name="Path 673" d="M397.488,278c-.057,0-.113.006-.17.006-2.6,0-4.7-2.413-4.7-5.393a5.59,5.59,0,0,1,2.282-4.62l2.588,2.586Z" transform="translate(-384.335 -188.606)" fill="#d9d9d9"/>
        <path id="Path_674" data-name="Path 674" d="M393.691,268.4a4.239,4.239,0,0,1,2.418-.775c.057,0,.113.008.17.011v3.35Z" transform="translate(-383.125 -189.017)" fill="#f5f6f6"/>
        <path id="Path_675" data-name="Path 675" d="M394.907,276.624V269.2l4.15,4.152A4.767,4.767,0,0,1,394.907,276.624Z" transform="translate(-381.753 -187.235)" fill="#c6c7c7"/>
        <path id="Path_676" data-name="Path 676" d="M394.907,270.979v-3.35c2.518.1,4.531,2.471,4.531,5.385a5.95,5.95,0,0,1-.381,2.118Z" transform="translate(-381.753 -189.011)" fill="#e2e3e4"/>
        <rect id="Rectangle_203" data-name="Rectangle 203" width="12.984" height="5.163" transform="translate(6.661 9.768)" fill="#c4c6cf"/>
      </g>
      <g id="Group_170" data-name="Group 170" transform="translate(351.866 235.87)">
        <path id="Path_677" data-name="Path 677" d="M351.866,233.485v-1.421h13.152V329.2H351.866Z" transform="translate(-351.866 -232.064)" fill="#f9ed32"/>
        <path id="Path_678" data-name="Path 678" d="M358.046,248.578V232.064h12.815V329.2H358.046Z" transform="translate(-344.894 -232.064)" fill="#e0ce2f"/>
        <path id="Path_679" data-name="Path 679" d="M353.134,234.325v-.262h10.454v66.949H353.134Z" transform="translate(-350.436 -229.807)" fill="#fff"/>
        <path id="Path_680" data-name="Path 680" d="M358.046,246.322V234.063h10.118v66.949H358.046Z" transform="translate(-344.894 -229.807)" fill="#ebedf2"/>
        <path id="Path_681" data-name="Path 681" d="M360.9,281.234c-3.048,0-5.525-2.846-5.525-6.342s2.477-6.338,5.525-6.338c.051,0,.1,0,.155.006l.043,0c2.988.119,5.325,2.9,5.325,6.327s-2.337,6.208-5.325,6.332l-.043,0C361,281.23,360.947,281.234,360.9,281.234Z" transform="translate(-347.912 -190.892)" fill="#a8a9b2"/>
        <path id="Path_682" data-name="Path 682" d="M355.758,274.392c0,3.046,2.2,5.5,4.87,5.391V269C357.954,268.894,355.758,271.35,355.758,274.392Z" transform="translate(-347.475 -190.392)" fill="#f4f9fb"/>
        <path id="Path_683" data-name="Path 683" d="M358.046,269v10.771c2.518-.1,4.533-2.473,4.533-5.387S360.564,269.106,358.046,269Z" transform="translate(-344.894 -190.386)" fill="#ebedf2"/>
        <rect id="Rectangle_204" data-name="Rectangle 204" width="12.984" height="5.161" transform="translate(6.576 9.768)" fill="#c4c6cf"/>
      </g>
      <g id="Group_171" data-name="Group 171" transform="translate(377.665 228.689)">
        <path id="Path_684" data-name="Path 684" d="M377.14,264.178V315H363.988V238.285l13.152,13.152Z" transform="translate(-363.988 -217.863)" fill="#ce3e3e"/>
        <path id="Path_685" data-name="Path 685" d="M363.988,249.112V228.689H377.14v33.574Z" transform="translate(-363.988 -228.689)" fill="#eb4747"/>
        <path id="Path_686" data-name="Path 686" d="M382.983,271.91v36.116H370.168V244.465l12.815,12.815Z" transform="translate(-357.016 -210.891)" fill="#b73939"/>
        <path id="Path_687" data-name="Path 687" d="M370.168,262.264V228.689h12.815v46.39Z" transform="translate(-357.016 -228.689)" fill="#d44242"/>
        <path id="Path_688" data-name="Path 688" d="M375.71,262.748v24.893H365.256V239.553l10.454,10.454Z" transform="translate(-362.558 -216.433)" fill="#d9d9d9"/>
        <path id="Path_689" data-name="Path 689" d="M365.256,249.553V230.689H375.71v29.318Z" transform="translate(-362.558 -226.433)" fill="#f5f6f6"/>
        <path id="Path_690" data-name="Path 690" d="M380.286,268.816V282.1H370.168V244.465l10.118,10.118Z" transform="translate(-357.016 -210.891)" fill="#c6c7c7"/>
        <path id="Path_691" data-name="Path 691" d="M370.168,260.007V230.689h10.118v39.436Z" transform="translate(-357.016 -226.433)" fill="#e2e3e4"/>
        <path id="Path_692" data-name="Path 692" d="M373.216,265.191c2.988.119,5.329,2.9,5.329,6.327s-2.341,6.208-5.329,6.332l-.043,0c-.051,0-.1.008-.155.008-3.048,0-5.525-2.846-5.525-6.342s2.477-6.338,5.525-6.338c.053,0,.1,0,.155.008Z" transform="translate(-360.034 -187.518)" fill="#515254"/>
        <path id="Path_693" data-name="Path 693" d="M372.749,276.4c-.055,0-.111.009-.168.009-2.6,0-4.7-2.414-4.7-5.4s2.1-5.393,4.7-5.393c.057,0,.113.006.168.011Z" transform="translate(-359.597 -187.017)" fill="#d9d9d9"/>
        <path id="Path_694" data-name="Path 694" d="M374.7,271.011c0,2.914-2.013,5.285-4.533,5.387V265.629C372.688,265.731,374.7,268.1,374.7,271.011Z" transform="translate(-357.016 -187.011)" fill="#c6c7c7"/>
        <rect id="Rectangle_205" data-name="Rectangle 205" width="12.984" height="5.161" transform="translate(6.661 9.768)" fill="#c4c6cf"/>
      </g>
      <g id="Group_172" data-name="Group 172" transform="translate(356.107 250.799)">
        <path id="Path_695" data-name="Path 695" d="M372.432,315.9c.226.053.834-.279,1.043-.349l2.013-.681c2.043-.687,2.024.181,4.059-.506,4.97-1.669,9.673-4.116,14.632-5.787l5.489-1.854c.319-.106,1.856-.4,1.984-.713.083-.172-.2-.819-.232-1-.049-.223-.192-.941-.341-1.815a30.458,30.458,0,0,1-.489-4.252c.026-.647,2.56-12.412,2.222-13.832-.417-1.715-1.158-3.42-1.72-5.106l-2.373-7.038c-.177-.521-.321-1.1-.541-1.607a5.048,5.048,0,0,0-3.563-3.152,3.218,3.218,0,0,0-3.069,1.158,4.265,4.265,0,0,0-.151,2.724,17.581,17.581,0,0,0,1.026,3.6c.564,1.5.347,2.241-.081,2.1-.594-.185-.809-1.641-.977-2.12L380.45,243.243c-.313-.919-.553-1.924-.951-2.809a1.715,1.715,0,0,0-.773-.766c-.089-.047-.177-.1-.272-.136l-.04-.017a6.184,6.184,0,0,0-.638-.226,4.721,4.721,0,0,0-5.174,1.694,5.025,5.025,0,0,0-.372.536l-.021.032a2.754,2.754,0,0,0-.3.728,1.725,1.725,0,0,0,.026.911c.16.528.349,1.03.521,1.556.664,1.967,7.781,22.628,8.026,23.815.194.93-.792,1.194-1.175.355a25,25,0,0,1-.894-2.658c-.411-1.213-1.669-5.3-2.186-5.917-1.43-1.681-4.769-.983-6,.615a3.783,3.783,0,0,0-.449,3.588l1.149,3.418a21.33,21.33,0,0,1,.879,2.607c.153.83-.343,1.015-1.043.86-.643-.14-1.949-3.331-2.311-4.4a4.486,4.486,0,0,0-2.435-2.984,4.131,4.131,0,0,0-4.927,1.6c-.811,1.137-.56,2.2-.155,3.393s2.211,5.6,1.243,5.985c-.426.179-1.071-1.262-1.245-1.664a3.584,3.584,0,0,0-4.414-2.018,4.168,4.168,0,0,0-2.616,3.229l0-.013a.2.2,0,0,0-.019.1.122.122,0,0,0-.011.07l-.011.028.006.011c.1,1.024,4.1,12.391,5.7,17.111l1.771,5.27a13.3,13.3,0,0,0,4.529,5.644,57.1,57.1,0,0,1,3.595,4.8c.106.177,1.19,3.358,1.947,5.589.313.932.577,1.7.685,2.02C372.183,315.483,372.207,315.843,372.432,315.9Z" transform="translate(-353.859 -239.078)" fill="#eab38b"/>
        <rect id="Rectangle_206" data-name="Rectangle 206" width="36.093" height="7.056" transform="translate(15.227 74.891) rotate(-18.618)" fill="#fff"/>
        <path id="Path_696" data-name="Path 696" d="M365.321,300.1l-5.67-14.832L402.5,270.832l9.371,29.268Z" transform="translate(-347.324 -203.251)" fill="#58595b"/>
        <path id="Path_697" data-name="Path 697" d="M367.32,246.748c1.779-.328,2.705-2.492,2.069-4.814l-.543-1.941a4.351,4.351,0,0,0-.16-.479,6.184,6.184,0,0,0-.638-.226,4.721,4.721,0,0,0-5.174,1.694,5.025,5.025,0,0,0-.372.536l-.021.032.436,1.549C363.561,245.424,365.547,247.063,367.32,246.748Z" transform="translate(-344.132 -239.078)" fill="#f2c4a5"/>
      </g>
    </g>
  </g>
</svg>
